HIERARCHY
ROOT root
{
	OFFSET 0.000000 0.000000 0.000000
	CHANNELS 6 Xposition Yposition Zposition Zrotation Yrotation Xrotation
	JOINT lhip
	{
		OFFSET 0.058581 -0.082280 -0.017664
		CHANNELS 3 Zrotation Yrotation Xrotation
		JOINT lknee
		{
			OFFSET 0.043451 -0.386469 0.008037
			CHANNELS 3 Zrotation Yrotation Xrotation
			JOINT lankle
			{
				OFFSET -0.014790 -0.426874 -0.037428
				CHANNELS 3 Zrotation Yrotation Xrotation
				JOINT ltoe
				{
					OFFSET 0.041054 -0.060286 0.122042
					CHANNELS 3 Zrotation Yrotation Xrotation
					End Site
					{
						OFFSET 0.000000 0.000000 0.000000
					}
				}
			}
		}
	}
	JOINT rhip
	{
		OFFSET -0.060310 -0.090513 -0.013543
		CHANNELS 3 Zrotation Yrotation Xrotation
		JOINT rknee
		{
			OFFSET -0.043257 -0.383688 -0.004843
			CHANNELS 3 Zrotation Yrotation Xrotation
			JOINT rankle
			{
				OFFSET 0.019056 -0.420046 -0.034562
				CHANNELS 3 Zrotation Yrotation Xrotation
				JOINT rtoe
				{
					OFFSET -0.034840 -0.062106 0.130323
					CHANNELS 3 Zrotation Yrotation Xrotation
					End Site
					{
						OFFSET 0.000000 0.000000 0.000000
					}
				}
			}
		}
	}
	JOINT lowerback
	{
		OFFSET 0.004439 0.124404 -0.038385
		CHANNELS 3 Zrotation Yrotation Xrotation
		JOINT upperback
		{
			OFFSET 0.004488 0.137956 0.026820
			CHANNELS 3 Zrotation Yrotation Xrotation
			JOINT chest
			{
				OFFSET -0.002265 0.056032 0.002855
				CHANNELS 3 Zrotation Yrotation Xrotation
				JOINT lowerneck
				{
					OFFSET -0.013390 0.211636 -0.033468
					CHANNELS 3 Zrotation Yrotation Xrotation
					JOINT upperneck
					{
						OFFSET 0.010113 0.088937 0.050410
						CHANNELS 3 Zrotation Yrotation Xrotation
						End Site
						{
							OFFSET 0.000000 0.000000 0.000000
						}
					}
				}
				JOINT lclavicle
				{
					OFFSET 0.071702 0.114000 -0.018898
					CHANNELS 3 Zrotation Yrotation Xrotation
					JOINT lshoulder
					{
						OFFSET 0.122921 0.045205 -0.019046
						CHANNELS 3 Zrotation Yrotation Xrotation
						JOINT lelbow
						{
							OFFSET 0.255332 -0.015649 -0.022946
							CHANNELS 3 Zrotation Yrotation Xrotation
							JOINT lwrist
							{
								OFFSET 0.265709 0.012698 -0.007375
								CHANNELS 3 Zrotation Yrotation Xrotation
								End Site
								{
									OFFSET 0.000000 0.000000 0.000000
								}
							}
						}
					}
				}
				JOINT rclavicle
				{
					OFFSET -0.082954 0.112472 -0.023707
					CHANNELS 3 Zrotation Yrotation Xrotation
					JOINT rshoulder
					{
						OFFSET -0.113228 0.046853 -0.008472
						CHANNELS 3 Zrotation Yrotation Xrotation
						JOINT relbow
						{
							OFFSET -0.260127 -0.014369 -0.031269
							CHANNELS 3 Zrotation Yrotation Xrotation
							JOINT rwrist
							{
								OFFSET -0.269108 0.006794 -0.006027
								CHANNELS 3 Zrotation Yrotation Xrotation
								End Site
								{
									OFFSET 0.000000 0.000000 0.000000
								}
							}
						}
					}
				}
			}
		}
	}
}
MOTION
Frames: 17
Frame Time: 0.033333
1.291601 0.744434 0.879010 -91.604318 1.576421 94.118677 6.442267 5.782878 -39.261979 -11.078075 9.318354 60.746924 6.453186 21.198140 -30.820837 0.000000 -0.000000 0.000000 1.433617 -3.762851 -36.167208 4.024166 -3.113263 60.848656 0.715628 -17.987669 -35.307054 0.000000 -0.000000 0.000000 -0.468295 -0.662458 30.303582 0.373532 -1.954369 -12.660399 1.330952 -1.249092 6.445369 -1.303557 -3.048744 -14.897448 6.272148 3.993338 -23.797640 -7.010812 11.459881 -3.422335 -18.243147 11.609866 -19.013029 13.705217 -14.009810 -20.150152 16.761702 -4.349416 -1.686526 1.417905 -10.715201 1.034754 25.723065 -18.265440 -9.029482 -12.797547 15.484716 -0.539309 -9.283117 3.693470 16.855843 
1.293983 0.747047 0.854770 -90.034867 0.879835 95.230913 7.122458 5.123108 -43.901499 -10.658034 12.091195 65.959126 7.573711 20.058226 -31.873235 0.000000 -0.000000 0.000000 0.365478 -3.278722 -40.535296 2.892697 -4.945562 66.933449 0.058767 -18.425131 -36.879994 0.000000 -0.000000 0.000000 -1.264809 0.632673 32.561868 0.258381 -0.784782 -12.144927 1.260132 -1.219322 4.785384 -0.155541 -3.913685 -20.394299 7.325986 1.350302 -22.957458 -13.799582 7.659538 -1.805071 -23.681523 8.701356 -16.496527 14.510174 -14.378249 -20.685872 18.470827 -3.319273 -2.512988 8.817401 -7.174846 2.796517 32.554401 -18.630239 -7.377646 -13.826498 14.861017 -3.337574 -11.526895 3.552416 14.673600 
1.293591 0.750561 0.841134 -86.210506 0.679792 95.247683 7.698972 3.087843 -46.339809 -9.955423 12.439621 69.296822 7.909689 17.446653 -32.343655 0.000000 -0.000000 0.000000 -0.387118 -3.505734 -41.620667 0.889160 -7.477406 70.107043 -0.588697 -18.692748 -37.304086 0.000000 -0.000000 0.000000 -1.117156 1.971421 35.748685 0.737455 -0.360514 -10.819196 1.555935 -0.893157 1.892660 0.515652 -5.670647 -25.636751 8.593412 -2.657333 -22.189896 -20.662532 1.348034 1.183910 -31.038349 5.573917 -12.198310 14.175964 -15.613414 -19.375249 19.557275 -2.621660 -3.792224 17.201009 0.145200 5.911767 40.308142 -16.707683 -5.467401 -15.042287 13.195247 -10.049180 -15.568935 2.590687 9.704029 
1.291472 0.753813 0.837937 -81.962523 0.713162 94.902460 7.719657 1.143908 -46.922534 -9.073529 11.720048 70.235016 8.285926 14.887366 -32.357337 0.000000 -0.000000 0.000000 -0.922526 -3.768872 -40.713913 -1.801224 -10.206308 71.125160 -1.335659 -18.126582 -37.241103 0.000000 -0.000000 0.000000 -0.529846 3.122394 37.980424 0.793103 -0.052452 -10.031767 1.951786 -0.446098 -0.016037 0.856323 -6.001904 -29.366487 8.314515 -6.852896 -21.188242 -25.743749 -5.138135 4.218554 -40.973017 3.093525 -7.040454 14.028509 -17.210531 -12.145047 16.137662 -2.149402 -3.117211 23.555377 9.064659 9.059770 48.263019 -9.213739 -2.870384 -18.407098 14.456027 -14.153608 -16.959724 1.536322 5.078320 
1.286863 0.756340 0.844944 -77.721663 0.469476 94.853370 7.244618 -0.327351 -46.293547 -9.287120 10.233374 68.910744 8.248445 12.443238 -32.206959 0.000000 -0.000000 0.000000 -1.315954 -5.068325 -38.442749 -3.431625 -12.204830 69.421060 -1.818653 -17.528804 -37.424044 0.000000 -0.000000 0.000000 -0.236036 4.090039 37.467721 0.048483 0.106585 -9.251866 1.751396 0.104648 -0.715447 2.286805 -5.641394 -30.717649 6.471617 -9.541494 -19.255478 -27.965902 -8.239098 5.565326 -49.637844 2.065088 -0.513557 10.565527 -20.226925 -0.540418 17.110894 -3.040534 -3.047219 25.303715 15.546901 9.088766 52.714548 2.568068 3.491966 -13.668009 22.695287 -3.383488 -19.727916 3.044556 7.378648 
1.280619 0.760739 0.862887 -73.137988 0.273296 95.906939 6.711617 -1.053809 -45.301636 -9.890236 8.171560 64.738232 8.378621 9.539697 -30.780220 0.000000 -0.000000 0.000000 -0.947959 -7.322830 -36.324462 -3.760476 -14.002024 65.383568 -2.140840 -16.720482 -36.115748 0.000000 -0.000000 0.000000 0.658687 5.039985 33.891367 -1.331693 0.958996 -8.811645 0.576760 1.496508 -0.366009 2.954186 -4.852876 -30.791768 3.258958 -12.344969 -15.987538 -27.711662 -9.043984 5.108401 -54.064098 4.024785 4.856100 5.244269 -25.717667 14.185225 13.704977 -5.216418 -1.448344 23.566629 20.882342 7.480337 54.815424 13.667091 10.012431 -8.463245 40.923909 9.364782 -18.254720 6.465215 4.244286 
1.267385 0.767814 0.895965 -67.067950 -0.281399 96.127491 6.150587 -1.210340 -41.256811 -11.360982 5.589401 56.806641 8.149189 5.653729 -26.768419 0.000000 -0.000000 0.000000 -0.861052 -10.364206 -30.752646 -2.876151 -16.474956 57.120333 -1.859778 -15.390442 -32.629945 0.000000 -0.000000 0.000000 1.440263 8.045407 29.390677 -2.471766 2.827778 -7.310438 -0.334668 3.415309 -0.104415 2.599830 -4.528569 -29.540104 0.355714 -14.254512 -13.891262 -23.896551 -7.583966 2.393476 -54.717576 7.201172 8.318604 -4.385194 -35.146720 30.575470 9.198730 -4.196272 2.754629 18.674540 23.916802 4.258235 56.653944 20.193909 13.230554 -16.104828 62.546624 3.136889 -18.651458 6.874722 -0.219118 
1.247599 0.771894 0.945217 -56.749131 -0.815521 96.486595 5.732853 -2.811178 -35.481315 -12.847854 1.767535 44.592487 5.878729 0.355766 -17.412851 0.000000 -0.000000 0.000000 -0.760179 -14.204598 -22.095787 -0.799620 -20.151889 43.596045 -0.681708 -13.658783 -23.678495 0.000000 -0.000000 0.000000 1.860939 10.741381 23.582334 -2.370775 3.056023 -6.082105 0.123241 4.353003 -0.225762 1.169443 -3.018916 -26.075305 -1.239539 -11.690394 -12.310967 -19.906719 -5.310534 0.983727 -55.099884 9.383360 9.060892 -10.285103 -38.891621 35.977929 9.726739 -5.219262 2.518137 13.443733 22.844354 1.452603 56.987161 22.264376 14.768181 -38.874748 79.232628 -17.954383 -18.920773 9.478911 -3.751317 
1.227792 0.771303 1.008429 -43.022901 -2.252636 97.259763 3.587235 -4.534261 -28.123068 -11.602759 -4.979645 26.690155 -2.432653 -6.125356 3.108230 0.000000 -0.000000 0.000000 0.485077 -16.118172 -14.063475 -0.921308 -22.482376 27.748629 2.520198 -12.445317 -3.444957 0.000000 -0.000000 0.000000 1.612026 11.577195 17.048825 -2.808381 2.212813 -5.105887 1.293681 4.197274 0.353408 -2.901380 -0.995769 -23.602129 0.024644 -2.963345 -10.282603 -15.886561 -5.613615 0.133011 -56.845963 10.373806 7.181058 -11.760895 -37.313512 34.885464 12.921163 -6.878022 7.794205 8.431763 21.446100 0.318055 60.210911 19.186217 15.923038 -103.602536 87.599358 -81.750685 -21.517602 10.134628 -6.520616 
1.210996 0.763541 1.080096 -27.738081 -5.163950 97.203067 -1.365085 -5.946641 -16.846047 -2.500023 -3.345186 -1.202695 -19.420688 -1.907708 37.242624 0.000000 -0.000000 0.000000 1.548029 -14.123056 -7.959971 -5.980801 -26.052062 13.686275 6.609878 -12.797114 25.719551 0.000000 -0.000000 0.000000 0.288453 10.696613 11.952460 -3.485537 1.316849 -2.989241 1.900203 3.652369 -2.337775 -7.431541 2.770843 -16.142254 -0.597521 7.255599 -12.225009 -14.881544 -6.409997 2.509653 -57.594388 6.743336 7.185306 -8.987504 -29.697734 24.744169 10.496372 -7.953148 11.405404 8.367049 18.681679 3.990811 65.579633 15.654565 21.747637 28.326719 87.852144 48.265948 -25.296078 11.773748 -4.612931 
1.197641 0.751886 1.144903 -11.799196 -6.175094 96.357663 -5.239838 -0.126469 -13.354626 2.670596 11.693742 -1.737029 -15.725627 4.084756 34.790415 0.000000 -0.000000 0.000000 4.072110 -10.600536 -3.795018 -6.512186 -16.938064 3.499955 9.850001 -7.178915 39.842729 0.000000 -0.000000 0.000000 0.771840 9.176054 8.190917 -4.003699 -0.017584 -2.187712 2.209744 3.489632 -5.295195 -9.548207 9.496618 -8.639019 -2.826862 19.044355 -12.862202 -19.628184 -10.295979 5.183620 -54.388450 3.748183 3.210259 -4.830124 -17.191825 16.470798 5.447665 -7.340579 22.150434 12.658356 16.365310 10.854751 66.217058 13.297199 21.850669 28.860679 79.920204 48.914899 -25.324753 12.815443 -2.210682 
1.193578 0.746953 1.194990 5.218059 -7.385014 96.817612 -3.807000 -4.868453 -13.598443 -0.018644 5.237641 4.027407 -13.328013 2.362239 41.485991 0.000000 -0.000000 0.000000 2.524655 -7.700368 -7.255908 -1.313746 -12.437130 4.321054 13.870636 -5.072788 41.450589 0.000000 -0.000000 0.000000 0.307177 7.759963 3.947523 -2.697610 -1.418873 -0.374431 0.967420 3.122627 -6.766679 -8.631773 19.719291 -9.066995 -5.760095 27.793962 -10.483644 -25.354292 -12.139419 4.896616 -51.297035 0.607442 5.340699 2.427337 -9.370366 14.470802 0.064415 -2.156318 28.803980 17.443551 11.723467 11.800452 65.552305 8.292680 22.340216 9.915046 75.745059 35.057920 -9.175243 8.075071 -4.707718 
1.185717 0.747838 1.231865 23.902215 -7.623446 95.715644 -2.536987 -5.266566 -13.903615 0.175573 4.508759 5.985996 -11.797688 3.140563 41.562929 0.000000 -0.000000 0.000000 2.836680 -4.426678 -11.425451 -2.491574 -10.723353 9.780779 13.261275 -5.444733 42.361274 0.000000 -0.000000 0.000000 0.449010 5.988879 2.255013 -1.862531 -2.362199 2.145106 0.657680 2.277002 -7.507556 -9.795760 27.050859 -11.309451 -6.837917 33.331510 -9.736708 -25.787696 -15.682283 5.216559 -52.017729 -2.684925 7.273117 2.951705 -9.856837 16.649794 -3.929388 1.422498 30.546980 18.987913 9.922727 12.260249 67.880728 5.392913 20.577858 -11.569281 68.967421 12.464817 -2.376066 5.346640 -3.901596 
1.176689 0.745718 1.254411 42.170607 -7.041074 92.406569 -1.346711 -3.163192 -10.786982 1.140992 6.581968 4.695640 -12.550229 3.892654 43.492544 0.000000 -0.000000 0.000000 3.679435 -4.349809 -9.538734 -3.339754 -12.355961 7.539331 13.346722 -5.317628 42.610348 0.000000 -0.000000 0.000000 0.617798 4.809947 4.237347 -0.998253 -3.096403 1.562748 1.681047 1.261075 -6.840982 -10.960633 30.113992 -10.924408 -7.126212 35.010213 -8.935515 -22.585794 -17.223753 5.348398 -56.006666 -8.018401 8.826869 -0.001332 -11.142478 17.964134 -8.433806 2.413497 24.628456 17.303135 7.569083 12.043814 69.401296 5.683020 18.829919 -12.323073 59.696544 10.408104 1.090404 4.067063 -1.986672 
1.171741 0.743663 1.269014 59.440440 -7.501191 89.908207 -1.761631 -2.814274 -8.834435 0.621630 5.532331 4.672113 -12.528065 3.686115 45.390287 0.000000 -0.000000 0.000000 2.557296 -4.613534 -8.435648 -3.263531 -10.382503 6.337780 14.667367 -4.173700 42.345875 0.000000 -0.000000 0.000000 -0.985084 4.269819 4.942858 -0.206554 -3.475322 0.787622 2.711667 1.361616 -6.188417 -11.806419 29.430645 -8.850659 -6.573800 34.441140 -9.546976 -20.882456 -19.304951 5.546186 -59.222338 -11.393453 11.796506 -0.131128 -12.661025 19.173779 -8.519974 2.181395 21.105590 16.288316 6.969329 12.218686 68.274644 3.240155 16.357376 -12.721507 53.293381 8.361432 6.805897 3.260851 -4.502562 
1.169995 0.741912 1.274703 78.013081 -7.345674 88.858473 -1.873361 -3.858644 -10.274428 -0.395821 5.348382 7.069454 -11.242138 3.962642 44.556145 0.000000 -0.000000 0.000000 1.467510 -5.509760 -8.826134 -2.239961 -7.471383 7.017190 15.619651 -3.699052 41.971022 0.000000 -0.000000 0.000000 -1.773981 4.122424 1.745443 0.648113 -4.804382 2.237399 2.578775 0.905159 -6.103215 -11.141000 28.474608 -6.325801 -5.841552 34.394618 -9.361219 -20.727953 -19.644866 5.644188 -58.807282 -13.757944 13.032277 -1.802768 -13.954667 19.637632 -9.480340 2.569439 18.601079 16.375021 5.992742 13.167582 66.677296 0.580722 15.276977 -14.977894 48.643731 3.649514 6.860496 2.218633 -4.565445 
1.169805 0.738689 1.269565 93.621628 -6.482447 88.088252 -1.212775 -4.085322 -10.666649 -0.671632 6.288906 9.043870 -9.980341 4.528169 42.978875 0.000000 -0.000000 0.000000 1.859882 -4.688070 -8.817451 -2.456150 -6.301134 7.520596 14.258797 -4.628393 40.445367 0.000000 -0.000000 0.000000 -2.597542 4.274516 -0.841623 1.249148 -4.612974 3.155781 2.657167 0.423487 -6.674576 -9.855485 27.950214 -3.877072 -5.276204 33.240480 -7.869020 -19.956366 -18.276557 5.526001 -57.700161 -15.244956 12.985122 -2.232968 -15.082535 20.527717 -11.777408 3.609839 16.020080 16.986458 4.190900 14.399448 65.015870 -0.897466 14.313529 -16.172804 44.266622 3.239898 7.668004 1.635910 -4.448425 
